PathFileType	4	(X/Y/Z)	Walk5.trc
DataRate	CameraRate	NumFrames	NumMarkers	Units	OrigDataRate	OrigDataStartFrame	OrigNumFrames
200.000000	200.000000	6	59	mm	200.000000	457	534
Frame#	Times		LBHD		C7		T10		RBack		LPSI		RPSI		RCAR		LElbowM		RElbowM		LUA1		RBHD		RFA1		LLFC		LCAR		RWRR		RFHD		LACR1		RTH3		CLAV		LWRR		RUA1		RTH2		RACR1		LWRU		RTB4		RTH4		RTB3		RToe		RMT1		RWRU		LFA1		RCAL		RMT5		LTH4		LTH1		RElbow		RLFC		RTB1		RTB2		STRN		LElbow		LFHD		LTH2		LTH3		RMMAL		RLMAL		LTB3		LTB2		RASI		LCAL		LMT1		LASI		LLMAL		LTB1		LMT5		RTH1		LTB4		LToe		LMMAL
			X1	Y1	Z1	X2	Y2	Z2	X3	Y3	Z3	X4	Y4	Z4	X5	Y5	Z5	X6	Y6	Z6	X7	Y7	Z7	X8	Y8	Z8	X9	Y9	Z9	X10	Y10	Z10	X11	Y11	Z11	X12	Y12	Z12	X13	Y13	Z13	X14	Y14	Z14	X15	Y15	Z15	X16	Y16	Z16	X17	Y17	Z17	X18	Y18	Z18	X19	Y19	Z19	X20	Y20	Z20	X21	Y21	Z21	X22	Y22	Z22	X23	Y23	Z23	X24	Y24	Z24	X25	Y25	Z25	X26	Y26	Z26	X27	Y27	Z27	X28	Y28	Z28	X29	Y29	Z29	X30	Y30	Z30	X31	Y31	Z31	X32	Y32	Z32	X33	Y33	Z33	X34	Y34	Z34	X35	Y35	Z35	X36	Y36	Z36	X37	Y37	Z37	X38	Y38	Z38	X39	Y39	Z39	X40	Y40	Z40	X41	Y41	Z41	X42	Y42	Z42	X43	Y43	Z43	X44	Y44	Z44	X45	Y45	Z45	X46	Y46	Z46	X47	Y47	Z47	X48	Y48	Z48	X49	Y49	Z49	X50	Y50	Z50	X51	Y51	Z51	X52	Y52	Z52	X53	Y53	Z53	X54	Y54	Z54	X55	Y55	Z55	X56	Y56	Z56	X57	Y57	Z57	X58	Y58	Z58	X59	Y59	Z59

457	2.285	592.77	1481.1	-137.07	561.17	1343.9	-65.985	542.75	1073	-55.464	535.73	1247.5	69.011	531.14	884.63	-89.794	517.1	893.21	9.9131	804.38	768.32	233.07	570.84	953.01	-236.6	613.79	952.08	153.49	640.12	1098.9	-298.37	585.06	1489.2	-13.846	694.64	877.15	230.66	782.6	454.03	-164.35	664.85	695.11	-363.95	806.3	810.43	183.4	764.83	1487.7	-28.712	645.97	1273.7	-224.2	606.35	540.61	141.97	688.21	1269.1	-53.338	683.85	732.45	-314.81	656.32	1141.9	180.22	692.93	630.63	137.68	632.03	1291.4	93.09	621.89	741.17	-353.38	483.91	262.98	45.232	618.47	633.6	161.3	419.87	195.61	35.589	378.32	28.31	-1.1181	364.13	70.786	-5.4935	745.99	779.75	213.25	606.24	861.93	-336.58	282.04	197.2	35.899	339.62	70.456	49.092	756.71	656.96	-194.11	726.9	742.84	-218.66	658.42	1000.2	225.24	603.19	441.08	134.82	555.99	319.64	51.354	457.43	283.44	109.53	755.81	1168.5	-50.481	595.09	982.66	-306.75	763.96	1478.4	-105.77	809.63	687.55	-153.07	779.75	568.56	-169.88	346.38	167.33	-8.733	328.85	162.84	69.197	833.91	162.91	-72.131	800.95	248.96	-146.89	710.29	869.75	121.99	753.32	28.125	-75.911	906.63	50.034	-62.217	704.18	848.71	-181.36	795.92	60.222	-116.57	825.65	345.24	-83.136	886.75	26.895	-114.76	631.69	719.84	182.6	821.45	253.34	-79.297	961.22	30.505	-68.21	813.52	67.733	-38.391
458	2.29	598.65	1482.1	-137.8	567.2	1344.9	-66.664	548.9	1074	-55.91	541.79	1248.8	68.458	537.15	885.72	-89.997	523.27	893.66	9.7688	807.32	768.17	233.22	577.84	954.18	-236.82	618.67	953.64	152.68	646.89	1100	-298.75	590.93	1490.2	-14.58	698.54	878.08	230.43	785.59	454.28	-165.1	671.89	696.16	-364.16	809.69	810.21	183.43	770.69	1488.9	-29.406	652.22	1274.8	-224.72	615.85	540.74	142.74	694.28	1270.2	-53.861	690.77	733.53	-314.95	661.87	1143.2	179.66	701.37	631.72	137.88	638.13	1292.7	92.434	628.95	742.29	-353.66	493.6	264.19	46.697	626.86	633.98	161.43	428.62	197.77	36.676	382.9	29.335	0.92231	370.71	73.175	-4.1383	749.05	780.14	213.29	613.19	863.04	-336.9	290.79	201.83	35.243	345.21	73.675	49.878	761.45	657.54	-194.76	732.31	743.7	-219.15	663.3	1001.4	224.62	613.66	441.24	135.95	566.52	319.81	53.27	466.34	285.79	110.37	761.88	1169.6	-51.031	601.91	983.77	-307.11	769.82	1479.5	-106.48	814.43	687.61	-153.44	783.76	568.82	-170.69	355.13	170.41	-8.467	336.4	166.71	69.314	834.68	162.72	-72.553	802.35	248.9	-147.48	723.04	869.29	121.43	753.31	28.176	-76.054	906.64	49.935	-62.365	704.03	848.64	-181.35	796.05	60.174	-116.78	827.86	345.1	-83.855	886.74	26.796	-114.98	639.07	720.48	182.19	822.9	253.23	-79.862	961.36	30.079	-68.147	813.61	67.818	-38.633
459	2.295	604.51	1483	-138.49	573.22	1345.9	-67.313	555.01	1075	-56.34	547.82	1250	67.926	543.11	886.77	-90.216	529.38	894.11	9.5684	810.21	768.01	233.41	584.82	955.35	-237.06	623.51	955.17	151.91	653.67	1101.1	-299.13	596.78	1491.3	-15.277	702.38	878.98	230.23	788.37	454.47	-165.79	679.05	697.24	-364.35	813.03	809.99	183.52	776.54	1490.2	-30.069	658.47	1276	-225.21	625.39	540.9	143.47	700.32	1271.2	-54.348	697.76	734.63	-315.06	667.42	1144.4	179.13	709.83	632.86	138.08	644.2	1294	91.81	636.11	743.4	-353.93	503.47	265.43	48.072	635.26	634.39	161.54	437.62	199.92	37.653	388.19	30.475	3.1967	377.86	75.563	-2.6731	752.07	780.51	213.35	620.18	864.15	-337.22	299.79	206.2	34.574	351.4	76.964	50.76	766.02	658.03	-195.41	737.59	744.46	-219.66	668.14	1002.6	224.02	624.22	441.43	137	577.19	320.05	55.091	475.51	288.09	111.14	767.9	1170.6	-51.534	608.72	984.88	-307.49	775.67	1480.7	-107.17	819.14	687.56	-153.9	787.62	568.98	-171.53	364.15	173.39	-8.2421	344.29	170.46	69.391	835.4	162.54	-72.938	803.67	248.85	-148.01	735.71	868.85	120.86	753.3	28.206	-76.174	906.63	49.856	-62.489	703.82	848.51	-181.34	796.17	60.133	-116.96	829.92	344.95	-84.502	886.71	26.724	-115.18	646.43	721.14	181.75	824.26	253.12	-80.371	961.47	29.706	-68.075	813.67	67.901	-38.842
460	2.3	610.35	1483.9	-139.14	579.21	1346.9	-67.933	561.08	1076	-56.758	553.82	1251.2	67.413	549.02	887.79	-90.45	535.45	894.58	9.3134	813.05	767.84	233.64	591.74	956.51	-237.33	628.3	956.65	151.19	660.45	1102.2	-299.48	602.62	1492.3	-15.936	706.16	879.84	230.04	790.97	454.61	-166.43	686.33	698.33	-364.53	816.34	809.76	183.66	782.37	1491.3	-30.699	664.74	1277.1	-225.66	634.98	541.1	144.15	706.34	1272.3	-54.799	704.83	735.75	-315.15	672.95	1145.6	178.63	718.29	634.06	138.26	650.22	1295.2	91.221	643.36	744.52	-354.2	513.52	266.7	49.341	643.67	634.83	161.61	446.86	202.03	38.512	394.23	31.72	5.6872	385.59	77.923	-1.0993	755.05	780.87	213.44	627.22	865.24	-337.56	309.01	210.3	33.881	358.19	80.284	51.742	770.44	658.43	-196.06	742.74	745.12	-220.19	672.93	1003.7	223.47	634.84	441.67	137.94	587.98	320.37	56.792	484.94	290.33	111.84	773.89	1171.6	-51.991	615.53	985.98	-307.89	781.5	1481.8	-107.82	823.75	687.42	-154.46	791.31	569.06	-172.39	373.43	176.23	-8.0594	352.51	174.09	69.428	836.06	162.36	-73.282	804.9	248.79	-148.49	748.3	868.42	120.3	753.28	28.217	-76.271	906.61	49.789	-62.583	703.68	848.34	-181.33	796.27	60.097	-117.1	831.86	344.8	-85.075	886.68	26.673	-115.35	653.76	721.82	181.28	825.52	253.01	-80.821	961.56	29.37	-67.993	813.73	67.977	-39.016
461	2.305	616.18	1484.8	-139.75	585.2	1347.8	-68.523	567.12	1077	-57.166	559.78	1252.4	66.916	554.89	888.77	-90.702	541.47	895.07	9.0068	815.86	767.66	233.91	598.62	957.66	-237.66	633.04	958.09	150.51	667.22	1103.3	-299.84	608.44	1493.2	-16.554	709.9	880.65	229.88	793.4	454.68	-167.01	693.72	699.43	-364.69	819.6	809.52	183.86	788.18	1492.5	-31.292	671	1278.3	-226.08	644.58	541.33	144.77	712.34	1273.3	-55.215	711.99	736.88	-315.22	678.48	1146.8	178.15	726.74	635.31	138.44	656.2	1296.4	90.669	650.71	745.61	-354.47	523.75	268	50.493	652.07	635.29	161.65	456.34	204.1	39.252	401.06	33.051	8.3681	393.92	80.231	0.58073	758	781.21	213.54	634.29	866.3	-337.9	318.45	214.08	33.157	365.6	83.597	52.829	774.71	658.74	-196.69	747.76	745.69	-220.74	677.68	1004.8	222.94	645.52	441.97	138.79	598.87	320.76	58.354	494.62	292.48	112.47	779.84	1172.6	-52.401	622.32	987.07	-308.32	787.31	1482.9	-108.44	828.28	687.17	-155.09	794.86	569.06	-173.26	382.98	178.9	-7.9178	361.07	177.55	69.424	836.7	162.19	-73.586	806.05	248.73	-148.9	760.78	868.01	119.74	753.27	28.211	-76.348	906.6	49.727	-62.647	703.72	848.14	-181.34	796.37	60.064	-117.22	833.67	344.64	-85.578	886.64	26.638	-115.5	661.07	722.52	180.8	826.71	252.88	-81.213	961.65	29.058	-67.896	813.77	68.042	-39.152
462	2.31	621.99	1485.6	-140.32	591.16	1348.8	-69.082	573.12	1078	-57.572	565.7	1253.5	66.432	560.7	889.72	-90.971	547.43	895.57	8.6529	818.64	767.46	234.22	605.43	958.77	-238.04	637.73	959.46	149.88	674	1104.3	-300.18	614.25	1494.2	-17.132	713.59	881.42	229.73	795.66	454.7	-167.52	701.23	700.52	-364.84	822.84	809.26	184.11	793.98	1493.7	-31.846	677.26	1279.3	-226.47	654.17	541.61	145.31	718.32	1274.3	-55.598	719.24	738.02	-315.28	683.99	1147.9	177.71	735.17	636.6	138.6	662.13	1297.5	90.155	658.14	746.67	-354.73	534.15	269.32	51.521	660.45	635.79	161.65	466.06	206.11	39.875	408.7	34.447	11.209	402.83	82.466	2.3633	760.93	781.53	213.68	641.39	867.33	-338.26	328.08	217.53	32.397	373.64	86.864	54.018	778.83	658.96	-197.31	752.66	746.17	-221.3	682.38	1005.8	222.46	656.22	442.33	139.53	609.85	321.23	59.761	504.53	294.54	113.02	785.76	1173.5	-52.763	629.11	988.14	-308.77	793.11	1484	-109.02	832.72	686.84	-155.78	798.26	569	-174.1	392.8	181.4	-7.8145	369.95	180.83	69.383	837.3	162.01	-73.854	807.11	248.67	-149.24	773.14	867.61	119.18	753.26	28.192	-76.404	906.58	49.663	-62.68	704.02	847.91	-181.36	796.47	60.033	-117.3	835.37	344.47	-86.018	886.6	26.616	-115.63	668.36	723.23	180.3	827.83	252.74	-81.551	961.74	28.759	-67.784	813.82	68.091	-39.251
